<svg width="40" height="40" viewBox="0 0 40 40" fill="none" xmlns="http://www.w3.org/2000/svg">
<path d="M26.6667 40H13.3333C12.2357 39.9955 11.17 39.63 10.3008 38.9598C9.43148 38.2897 8.80688 37.352 8.52333 36.2917C9.00062 33.5947 10.4125 31.152 12.5111 29.3921C14.6097 27.6323 17.2611 26.6677 20 26.6677C22.7389 26.6677 25.3903 27.6323 27.4889 29.3921C29.5875 31.152 30.9994 33.5947 31.4767 36.2917C31.1931 37.352 30.5685 38.2897 29.6992 38.9598C28.83 39.63 27.7643 39.9955 26.6667 40ZM5 35V22.3733C3.5156 23.0212 2.25215 24.0875 1.36417 25.442C0.476176 26.7965 0.00213063 28.3804 0 30L0 31.6667C0.00259876 33.5633 0.65209 35.4023 1.84118 36.8799C3.03027 38.3574 4.68782 39.3852 6.54 39.7933C5.54007 38.3949 5.00169 36.7192 5 35ZM35 22.3733V35C34.9983 36.7192 34.4599 38.3949 33.46 39.7933C35.3122 39.3852 36.9697 38.3574 38.1588 36.8799C39.3479 35.4023 39.9974 33.5633 40 31.6667V30C39.9979 28.3804 39.5238 26.7965 38.6358 25.442C37.7478 24.0875 36.4844 23.0212 35 22.3733ZM31.6667 18.3333V28.9267C30.2645 27.1807 28.4883 25.7718 26.4692 24.8037C24.45 23.8356 22.2393 23.333 20 23.333C17.7607 23.333 15.55 23.8356 13.5308 24.8037C11.5117 25.7718 9.7355 27.1807 8.33333 28.9267V18.3333C8.33451 16.4548 8.7898 14.6045 9.66039 12.9399C10.531 11.2753 11.7911 9.84584 13.3333 8.77333V6.66667C13.3333 4.89856 14.0357 3.20286 15.286 1.95262C16.5362 0.702379 18.2319 0 20 0C21.7681 0 23.4638 0.702379 24.714 1.95262C25.9643 3.20286 26.6667 4.89856 26.6667 6.66667V8.77333C28.2089 9.84584 29.469 11.2753 30.3396 12.9399C31.2102 14.6045 31.6655 16.4548 31.6667 18.3333ZM16.6667 7.16667C18.8405 6.5111 21.1595 6.5111 23.3333 7.16667V6.66667C23.3333 5.78261 22.9821 4.93476 22.357 4.30964C21.7319 3.68452 20.8841 3.33333 20 3.33333C19.1159 3.33333 18.2681 3.68452 17.643 4.30964C17.0179 4.93476 16.6667 5.78261 16.6667 6.66667V7.16667ZM25 16.6667C25 16.2246 24.8244 15.8007 24.5118 15.4882C24.1993 15.1756 23.7754 15 23.3333 15H16.6667C16.2246 15 15.8007 15.1756 15.4882 15.4882C15.1756 15.8007 15 16.2246 15 16.6667C15 17.1087 15.1756 17.5326 15.4882 17.8452C15.8007 18.1577 16.2246 18.3333 16.6667 18.3333H23.3333C23.7754 18.3333 24.1993 18.1577 24.5118 17.8452C24.8244 17.5326 25 17.1087 25 16.6667Z" fill="url(#paint0_linear_3_136)"/>
<defs>
<linearGradient id="paint0_linear_3_136" x1="8.14665" y1="2.86881" x2="39.2146" y2="39.3896" gradientUnits="userSpaceOnUse">
<stop stop-color="#FFE335"/>
<stop offset="0.49" stop-color="#FF5EF9"/>
<stop offset="0.99" stop-color="#4B51FF"/>
</linearGradient>
</defs>
</svg>
