<svg width="24" height="24" viewBox="0 0 24 24" fill="none" xmlns="http://www.w3.org/2000/svg">
<path d="M1.3184 12.5944L4.8784 15.1944L3.5264 19.3814C3.30792 20.0307 3.30515 20.7334 3.51851 21.3844C3.73188 22.0355 4.14995 22.6002 4.7104 22.9944C5.26126 23.4011 5.9288 23.6191 6.61356 23.6156C7.29832 23.6122 7.96365 23.3876 8.5104 22.9754L11.9914 20.4134L15.4734 22.9724C16.0233 23.3768 16.6872 23.5965 17.3698 23.5998C18.0524 23.6031 18.7184 23.3899 19.2722 22.9909C19.8259 22.5918 20.2389 22.0274 20.4517 21.3788C20.6645 20.7303 20.6661 20.0309 20.4564 19.3814L19.1044 15.1944L22.6644 12.5944C23.2135 12.1929 23.6218 11.6281 23.8307 10.9807C24.0397 10.3334 24.0388 9.63654 23.8281 8.98974C23.6174 8.34294 23.2076 7.77928 22.6574 7.37926C22.1072 6.97924 21.4447 6.76332 20.7644 6.76235H16.3914L15.0644 2.62635C14.8557 1.97531 14.4457 1.40737 13.8934 1.00442C13.3411 0.601468 12.6751 0.384338 11.9914 0.384338C11.3077 0.384338 10.6417 0.601468 10.0894 1.00442C9.53714 1.40737 9.12708 1.97531 8.9184 2.62635L7.5914 6.76235H3.2224C2.54215 6.76332 1.8796 6.97924 1.32938 7.37926C0.779172 7.77928 0.369445 8.34294 0.158725 8.98974C-0.0519941 9.63654 -0.0529268 10.3334 0.15606 10.9807C0.365048 11.6281 0.773265 12.1929 1.3224 12.5944H1.3184Z" fill="url(#paint0_linear_2_708)"/>
<defs>
<linearGradient id="paint0_linear_2_708" x1="4.8853" y1="2.05049" x2="22.8278" y2="23.828" gradientUnits="userSpaceOnUse">
<stop stop-color="#FFE335"/>
<stop offset="0.49" stop-color="#FF5EF9"/>
<stop offset="0.99" stop-color="#4B51FF"/>
</linearGradient>
</defs>
</svg>
